<svg width="30" height="30" viewBox="0 0 30 30" fill="none" xmlns="http://www.w3.org/2000/svg">
<path d="M11.1818 1H3.54548C2.14158 1 1 2.14158 1 3.54548V11.1818C1 12.5857 2.14158 13.7273 3.54548 13.7273H11.1818C12.5857 13.7273 13.7273 12.5857 13.7273 11.1818V3.54548C13.7273 2.14158 12.5857 1 11.1818 1ZM12.4546 11.1818C12.4546 11.8834 11.8834 12.4546 11.1818 12.4546H3.54548C2.84388 12.4546 2.27277 11.8834 2.27277 11.1818V3.54548C2.27277 2.84388 2.84388 2.27277 3.54548 2.27277H11.1818C11.8834 2.27277 12.4546 2.84388 12.4546 3.54548V11.1818ZM26.4546 1H18.8182C17.4143 1 16.2727 2.14158 16.2727 3.54548V11.1818C16.2727 12.5857 17.4143 13.7273 18.8182 13.7273H26.4546C27.8584 13.7273 29.0001 12.5857 29.0001 11.1818V3.54548C29 2.14158 27.8584 1 26.4546 1ZM27.7273 11.1818C27.7273 11.8834 27.1562 12.4546 26.4546 12.4546H18.8182C18.1166 12.4546 17.5455 11.8834 17.5455 11.1818V3.54548C17.5455 2.84388 18.1166 2.27277 18.8182 2.27277H26.4546C27.1562 2.27277 27.7273 2.84388 27.7273 3.54548V11.1818ZM11.1818 16.2727H3.54548C2.14158 16.2727 1 17.4143 1 18.8182V26.4546C1 27.8584 2.14158 29.0001 3.54548 29.0001H11.1818C12.5857 29.0001 13.7273 27.8585 13.7273 26.4546V18.8182C13.7273 17.4143 12.5857 16.2727 11.1818 16.2727ZM12.4546 26.4546C12.4546 27.1562 11.8834 27.7273 11.1818 27.7273H3.54548C2.84388 27.7273 2.27277 27.1562 2.27277 26.4546V18.8182C2.27277 18.1166 2.84388 17.5455 3.54548 17.5455H11.1818C11.8834 17.5455 12.4546 18.1166 12.4546 18.8182V26.4546ZM25.8182 22H23.2727V19.4545C23.2728 19.371 23.2564 19.2882 23.2244 19.2109C23.1924 19.1337 23.1456 19.0635 23.0865 19.0044C23.0273 18.9453 22.9572 18.8984 22.8799 18.8665C22.8027 18.8345 22.7199 18.8181 22.6363 18.8182C22.5528 18.8181 22.47 18.8345 22.3927 18.8665C22.3155 18.8984 22.2453 18.9453 22.1862 19.0044C22.1271 19.0635 22.0802 19.1337 22.0483 19.2109C22.0163 19.2882 21.9999 19.371 22 19.4545V22H19.4545C19.3709 22 19.2881 22.0164 19.2109 22.0483C19.1336 22.0803 19.0635 22.1272 19.0044 22.1863C18.9453 22.2454 18.8984 22.3156 18.8664 22.3928C18.8345 22.47 18.818 22.5528 18.8181 22.6364C18.818 22.72 18.8345 22.8028 18.8664 22.88C18.8984 22.9572 18.9453 23.0274 19.0044 23.0865C19.0635 23.1456 19.1336 23.1925 19.2109 23.2245C19.2881 23.2564 19.3709 23.2728 19.4545 23.2728H22V25.8182C22 25.9018 22.0164 25.9846 22.0483 26.0618C22.0803 26.139 22.1272 26.2092 22.1863 26.2683C22.2454 26.3274 22.3156 26.3743 22.3928 26.4063C22.47 26.4382 22.5528 26.4546 22.6364 26.4546C22.72 26.4546 22.8028 26.4382 22.88 26.4063C22.9572 26.3743 23.0274 26.3274 23.0865 26.2683C23.1456 26.2092 23.1925 26.139 23.2245 26.0618C23.2564 25.9846 23.2728 25.9018 23.2728 25.8182V23.2727H25.8182C25.9018 23.2728 25.9846 23.2564 26.0618 23.2244C26.139 23.1924 26.2092 23.1456 26.2683 23.0865C26.3274 23.0273 26.3743 22.9572 26.4063 22.8799C26.4382 22.8027 26.4546 22.7199 26.4546 22.6363C26.4546 22.5528 26.4382 22.47 26.4062 22.3928C26.3743 22.3155 26.3274 22.2454 26.2683 22.1863C26.2092 22.1272 26.139 22.0803 26.0618 22.0483C25.9846 22.0164 25.9018 22 25.8182 22Z" fill="#3093FD" stroke="#3093FD" stroke-width="0.5"/>
</svg>
