<svg width="25" height="24" viewBox="0 0 25 24" fill="none" xmlns="http://www.w3.org/2000/svg">
<path d="M14 6.00004V11.4338L18.515 14.1425C18.7424 14.2791 18.9063 14.5005 18.9705 14.7579C19.0347 15.0152 18.9941 15.2876 18.8575 15.515C18.7209 15.7425 18.4996 15.9063 18.2422 15.9705C17.9848 16.0348 17.7124 15.9941 17.485 15.8575L12.485 12.8575C12.337 12.7686 12.2146 12.6429 12.1296 12.4927C12.0446 12.3424 11.9999 12.1727 12 12V6.00004C12 5.73482 12.1054 5.48047 12.2929 5.29293C12.4804 5.10539 12.7348 5.00004 13 5.00004C13.2652 5.00004 13.5196 5.10539 13.7071 5.29293C13.8946 5.48047 14 5.73482 14 6.00004ZM13 3.7014e-05C11.4225 -0.00389242 9.85987 0.305079 8.40257 0.909071C6.94527 1.51306 5.62222 2.40008 4.51 3.51879C3.60125 4.43879 2.79375 5.32379 2 6.25004V4.00004C2 3.73482 1.89464 3.48047 1.70711 3.29293C1.51957 3.10539 1.26522 3.00004 1 3.00004C0.734784 3.00004 0.48043 3.10539 0.292893 3.29293C0.105357 3.48047 0 3.73482 0 4.00004V9.00004C0 9.26525 0.105357 9.51961 0.292893 9.70714C0.48043 9.89468 0.734784 10 1 10H6C6.26522 10 6.51957 9.89468 6.70711 9.70714C6.89464 9.51961 7 9.26525 7 9.00004C7 8.73482 6.89464 8.48047 6.70711 8.29293C6.51957 8.10539 6.26522 8.00004 6 8.00004H3.125C4.01875 6.94754 4.90875 5.95629 5.92375 4.92879C7.31357 3.53898 9.08213 2.58955 11.0085 2.19913C12.9348 1.80872 14.9335 1.99463 16.7547 2.73364C18.576 3.47266 20.1391 4.73199 21.2487 6.3543C22.3584 7.9766 22.9653 9.88994 22.9938 11.8552C23.0222 13.8205 22.4708 15.7506 21.4086 17.4043C20.3463 19.0581 18.8203 20.3621 17.0212 21.1535C15.2221 21.9448 13.2296 22.1885 11.2928 21.854C9.35598 21.5194 7.56069 20.6216 6.13125 19.2725C6.03571 19.1823 5.92333 19.1117 5.80052 19.0648C5.6777 19.018 5.54686 18.9958 5.41547 18.9995C5.28407 19.0032 5.15469 19.0328 5.03472 19.0865C4.91475 19.1402 4.80653 19.217 4.71625 19.3125C4.62597 19.4081 4.55538 19.5205 4.50853 19.6433C4.46168 19.7661 4.43948 19.8969 4.44319 20.0283C4.44691 20.1597 4.47647 20.2891 4.53018 20.4091C4.58389 20.529 4.66071 20.6373 4.75625 20.7275C6.18056 22.0716 7.91219 23.0467 9.8 23.5677C11.6878 24.0886 13.6744 24.1396 15.5865 23.7162C17.4986 23.2929 19.278 22.4079 20.7694 21.1387C22.2608 19.8695 23.4189 18.2545 24.1427 16.4348C24.8664 14.6151 25.1338 12.6459 24.9215 10.699C24.7091 8.75218 24.0236 6.8869 22.9246 5.26595C21.8256 3.64501 20.3466 2.31766 18.6166 1.39977C16.8867 0.481868 14.9584 0.00131167 13 3.7014e-05Z" fill="#3093FD"/>
</svg>
