<svg width="76" height="19" viewBox="0 0 76 19" fill="none" xmlns="http://www.w3.org/2000/svg">
<path d="M0.517045 18.5V1.04545H7.50568C8.78977 1.04545 9.8608 1.2358 10.7188 1.61648C11.5767 1.99716 12.2216 2.52557 12.6534 3.2017C13.0852 3.87216 13.3011 4.64489 13.3011 5.51989C13.3011 6.2017 13.1648 6.80114 12.892 7.31818C12.6193 7.82955 12.2443 8.25 11.767 8.57955C11.2955 8.90341 10.7557 9.13352 10.1477 9.26989V9.44034C10.8125 9.46875 11.4347 9.65625 12.0142 10.0028C12.5994 10.3494 13.0739 10.8352 13.4375 11.4602C13.8011 12.0795 13.983 12.8182 13.983 13.6761C13.983 14.6023 13.7528 15.429 13.2926 16.1562C12.8381 16.8778 12.1648 17.4489 11.2727 17.8693C10.3807 18.2898 9.28125 18.5 7.97443 18.5H0.517045ZM4.20739 15.483H7.21591C8.24432 15.483 8.99432 15.2869 9.46591 14.8949C9.9375 14.4972 10.1733 13.9687 10.1733 13.3097C10.1733 12.8267 10.0568 12.4006 9.82386 12.0312C9.59091 11.6619 9.25852 11.3722 8.8267 11.1619C8.40057 10.9517 7.89205 10.8466 7.30114 10.8466H4.20739V15.483ZM4.20739 8.34943H6.94318C7.44886 8.34943 7.89773 8.26136 8.28977 8.08523C8.6875 7.90341 9 7.64773 9.22727 7.31818C9.46023 6.98864 9.5767 6.59375 9.5767 6.13352C9.5767 5.50284 9.35227 4.99432 8.90341 4.60795C8.46023 4.22159 7.82955 4.02841 7.01136 4.02841H4.20739V8.34943ZM32.424 9.77273C32.424 11.6761 32.0632 13.2955 31.3416 14.6307C30.6257 15.9659 29.6484 16.9858 28.4098 17.6903C27.1768 18.3892 25.7905 18.7386 24.2507 18.7386C22.6996 18.7386 21.3075 18.3864 20.0746 17.6818C18.8416 16.9773 17.8672 15.9574 17.1513 14.6222C16.4354 13.2869 16.0774 11.6705 16.0774 9.77273C16.0774 7.86932 16.4354 6.25 17.1513 4.91477C17.8672 3.57955 18.8416 2.5625 20.0746 1.86364C21.3075 1.15909 22.6996 0.806818 24.2507 0.806818C25.7905 0.806818 27.1768 1.15909 28.4098 1.86364C29.6484 2.5625 30.6257 3.57955 31.3416 4.91477C32.0632 6.25 32.424 7.86932 32.424 9.77273ZM28.6825 9.77273C28.6825 8.53977 28.4979 7.5 28.1286 6.65341C27.7649 5.80682 27.2507 5.16477 26.5859 4.72727C25.9212 4.28977 25.1428 4.07102 24.2507 4.07102C23.3587 4.07102 22.5803 4.28977 21.9155 4.72727C21.2507 5.16477 20.7337 5.80682 20.3643 6.65341C20.0007 7.5 19.8189 8.53977 19.8189 9.77273C19.8189 11.0057 20.0007 12.0455 20.3643 12.892C20.7337 13.7386 21.2507 14.3807 21.9155 14.8182C22.5803 15.2557 23.3587 15.4744 24.2507 15.4744C25.1428 15.4744 25.9212 15.2557 26.5859 14.8182C27.2507 14.3807 27.7649 13.7386 28.1286 12.892C28.4979 12.0455 28.6825 11.0057 28.6825 9.77273ZM44.6264 6.06534C44.5582 5.37784 44.2656 4.84375 43.7486 4.46307C43.2315 4.08239 42.5298 3.89204 41.6435 3.89204C41.0412 3.89204 40.5327 3.97727 40.1179 4.14773C39.7031 4.3125 39.3849 4.54261 39.1634 4.83807C38.9474 5.13352 38.8395 5.46875 38.8395 5.84375C38.8281 6.15625 38.8935 6.42898 39.0355 6.66193C39.1832 6.89489 39.3849 7.09659 39.6406 7.26705C39.8963 7.43182 40.1918 7.5767 40.527 7.7017C40.8622 7.82102 41.2202 7.9233 41.6009 8.00852L43.169 8.38352C43.9304 8.55398 44.6293 8.78125 45.2656 9.06534C45.902 9.34943 46.4531 9.69886 46.919 10.1136C47.3849 10.5284 47.7457 11.017 48.0014 11.5795C48.2628 12.142 48.3963 12.7869 48.402 13.5142C48.3963 14.5824 48.1236 15.5085 47.5838 16.2926C47.0497 17.071 46.277 17.6761 45.2656 18.108C44.2599 18.5341 43.0469 18.7472 41.6264 18.7472C40.2173 18.7472 38.9901 18.5312 37.9446 18.0994C36.9048 17.6676 36.0923 17.0284 35.5071 16.1818C34.9276 15.3295 34.6236 14.2756 34.5952 13.0199H38.1662C38.206 13.6051 38.3736 14.0937 38.669 14.4858C38.9702 14.8722 39.3707 15.1648 39.8707 15.3636C40.3764 15.5568 40.9474 15.6534 41.5838 15.6534C42.2088 15.6534 42.7514 15.5625 43.2116 15.3807C43.6776 15.1989 44.0384 14.946 44.294 14.6222C44.5497 14.2983 44.6776 13.9261 44.6776 13.5057C44.6776 13.1136 44.5611 12.7841 44.3281 12.517C44.1009 12.25 43.7656 12.0227 43.3224 11.8352C42.8849 11.6477 42.348 11.4773 41.7116 11.3239L39.8111 10.8466C38.3395 10.4886 37.1776 9.92898 36.3253 9.16761C35.473 8.40625 35.0497 7.38068 35.0554 6.09091C35.0497 5.03409 35.331 4.1108 35.8991 3.32102C36.473 2.53125 37.2599 1.91477 38.2599 1.47159C39.2599 1.02841 40.3963 0.806818 41.669 0.806818C42.9645 0.806818 44.0952 1.02841 45.0611 1.47159C46.0327 1.91477 46.7884 2.53125 47.3281 3.32102C47.8679 4.1108 48.1463 5.02557 48.1634 6.06534H44.6264ZM50.424 18.5V9.77273H51.4808V13.6591H56.1342V9.77273H57.1911V18.5H56.1342V14.5966H51.4808V18.5H50.424ZM59.3068 18.5V9.77273H62.2557C62.9375 9.77273 63.4972 9.8892 63.9347 10.1222C64.3722 10.3523 64.696 10.669 64.9062 11.0724C65.1165 11.4759 65.2216 11.9347 65.2216 12.4489C65.2216 12.9631 65.1165 13.419 64.9062 13.8168C64.696 14.2145 64.3736 14.527 63.9389 14.7543C63.5043 14.9787 62.9489 15.0909 62.2727 15.0909H59.8864V14.1364H62.2386C62.7045 14.1364 63.0795 14.0682 63.3636 13.9318C63.6506 13.7955 63.858 13.6023 63.9858 13.3523C64.1165 13.0994 64.1818 12.7983 64.1818 12.4489C64.1818 12.0994 64.1165 11.794 63.9858 11.5327C63.8551 11.2713 63.6463 11.0696 63.3594 10.9276C63.0724 10.7827 62.6932 10.7102 62.2216 10.7102H60.3636V18.5H59.3068ZM63.4148 14.5795L65.5625 18.5H64.3352L62.2216 14.5795H63.4148ZM66.9826 9.77273H68.244L71.2099 17.017H71.3121L74.2781 9.77273H75.5394V18.5H74.5508V11.8693H74.4656L71.7383 18.5H70.7837L68.0565 11.8693H67.9712V18.5H66.9826V9.77273Z" fill="#090A0B"/>
</svg>
